# xmcd CD database file
#
# Track frame offsets:
#	150
#	13100
#	27600
#	39605
#	51725
#	64335
#	80288
#	91583
#	108638
#	123653
#	138583
#	152558
#	166945
#
# Disc length: 2406 seconds
#
# Revision: 0
# Processed by: cddbd v1.5.1PL0 Copyright (c) Steve Scherf et al.
# Submitted via: CDex 1.51
#
DISCID=b309640d
DTITLE=The Emotions - So I Can Love You
DYEAR=1900
DGENRE=Blues
TTITLE0=So I Can Love You
TTITLE1=Somebody Wants What I Got
TTITLE2=Going On Strike
TTITLE3=I Found My Man
TTITLE4=Got To Be A Man
TTITLE5=The Best Part Of A Love Affair
TTITLE6=I Like It
TTITLE7=My Letter
TTITLE8=Day Dreams
TTITLE9=It's Not Fair
TTITLE10=Two Lovers
TTITLE11=Stealing Love
TTITLE12=When Tomorrow Comes
EXTD=
EXTT0=
EXTT1=
EXTT2=
EXTT3=
EXTT4=
EXTT5=
EXTT6=
EXTT7=
EXTT8=
EXTT9=
EXTT10=
EXTT11=
EXTT12=
PLAYORDER=
